<?xml version="1.0" encoding="UTF-8"?>
<svg id="Layer_1" data-name="Layer 1" xmlns="http://www.w3.org/2000/svg" viewBox="0 0 544.22 544.22">
  <path style="fill: #09be95;" d="m311.06,266.7c-1.27-1.04-2.71-1.56-4.18-1.56-1.9,0-3.85.86-5.55,2.56-13.95,13.94-27.91,27.87-41.81,41.86-.52.52-.91.77-1.28.77-.41,0-.79-.29-1.31-.81-4.69-4.79-9.46-9.48-14.19-14.24-1.48-1.49-3.17-2.31-5.08-2.31-.6,0-1.22.08-1.86.25-5.27,1.37-6.86,7.73-2.92,11.7,6.74,6.79,13.51,13.54,20.28,20.29,1.55,1.55,3.33,2.32,5.12,2.32s3.63-.79,5.22-2.37c3.72-3.69,7.42-7.41,11.12-11.11,12.15-12.15,24.29-24.31,36.45-36.44,1.56-1.56,2.61-3.28,2.56-5.27,0-2.48-.9-4.26-2.58-5.63Z"/>
  <path style="fill: #09be95;" d="m272.11,0C2.1,0,0,121.83,0,272.11s2.1,272.11,272.11,272.11,272.11-121.83,272.11-272.11S542.12,0,272.11,0Zm-93.5,190.9c4.19-12.56,8.35-25.12,12.58-37.66,4.17-12.4,14.71-20.05,27.77-20.06,35.37-.04,70.74-.03,106.1,0,13.2.01,23.7,7.59,27.91,20.12,6.24,18.57,12.43,37.16,18.63,55.75.18.53.3,1.09.49,1.79-5.6,0-11.08,0-16.56,0-2.43,0-4.86-.11-7.28.04-1.48.09-2.09-.41-2.55-1.79-4.71-14.06-9.49-28.1-14.26-42.15-.61-1.81-1.23-3.61-1.86-5.42-1.05-3.04-2.13-3.83-5.34-3.83-17.3,0-34.6,0-51.9,0-17.49,0-34.98,0-52.48,0-3.55,0-4.55.74-5.69,4.14-5.25,15.7-10.52,31.39-15.72,47.11-.47,1.41-1.02,1.97-2.63,1.95-7.47-.11-14.94-.05-22.41-.05-.43,0-.85-.05-1.44-.09,2.23-6.7,4.42-13.27,6.61-19.84Zm122.74,172.3c-9.58,3.96-19.46,5.83-29.15,5.83-32.96,0-63.75-21.57-73.38-55.5-8.83-31.14,3.28-63.96,28.73-82.3,4.08-2.94,8.49-5.52,13.23-7.65,7.85-3.52,16.04-5.68,24.6-6.43.04,0,.08,0,.12,0,.06,0,.12,0,.18,0,.22,0,.43-.03.55-.3h11.67c1.89.64,3.89.54,5.82.9,12.87,2.44,23.99,6.93,33.26,13.49,13.22,9.36,22.69,22.92,28.11,40.77,11.19,36.85-8.21,76.49-43.75,91.2Zm113.7-83.76c0,5.72-3.31,9.04-9,9.05-3.77,0-7.53.04-11.3-.02-1.29-.02-1.95.13-2.19,1.73-2.04,14.13-4.2,28.25-6.33,42.37-2.38,15.76-4.75,31.52-7.13,47.27-.82,5.42-1.68,10.84-2.42,16.27-1.24,9.03-7.81,14.93-16.93,14.95-17.3.04-34.6.01-51.89.02-40.92,0-81.83,0-122.75,0-8.19,0-14.44-4.13-16.78-11.12-.94-2.8-1.13-5.75-1.57-8.64-2.4-15.75-4.75-31.52-7.11-47.28-2.37-15.76-4.73-31.52-7.1-47.28-.35-2.33-.81-4.65-1.05-7-.12-1.15-.62-1.3-1.58-1.29-3.96.04-7.92.04-11.87.01-5.63-.04-8.93-3.32-8.94-8.92-.02-13.09-.01-26.17,0-39.26,0-5.84,3.27-9.09,9.15-9.09,20.06,0,40.11,0,60.17,0-5.33,6.37-9.87,13.44-13.44,21.09-9.75,20.9-11.67,44.57-5.4,66.66,5.87,20.69,18.07,38.36,35.28,51.1,16.52,12.22,36.88,18.95,57.33,18.95,12.63,0,25.01-2.47,36.8-7.35,21.79-9.02,39.46-25.74,49.76-47.08,10.39-21.53,12.34-45.82,5.48-68.41-4.1-13.49-10.22-25.18-18.2-34.96,19.84,0,39.69-.01,59.53-.05,5.49-.01,9.65,3.37,9.54,9.59-.23,12.89-.06,25.79-.07,38.68Z"/>
</svg>