<svg id="Layer_1" data-name="Layer 1" xmlns="http://www.w3.org/2000/svg" viewBox="0 0 98.36 97.7"><title>icon</title><path d="M19.26,1.27H80.74a18.27,18.27,0,0,1,18.32,18.2V80.53a18.27,18.27,0,0,1-18.32,18.2H19.26A18.27,18.27,0,0,1,.94,80.53V19.47A18.27,18.27,0,0,1,19.26,1.27Z" transform="translate(-0.82 -1.15)" style="fill:#262626;stroke:#000;stroke-miterlimit:10;stroke-width:0.25px"/><polygon points="31.99 60.03 29.09 57.14 26.8 59.43 31.99 64.61 38.3 58.31 36.01 56.02 31.99 60.03" style="fill:#ff3644"/><path d="M52.24,24,26.87,35.37V52.1a10.93,10.93,0,0,0,12.3,18.05L52.24,76,77.6,64.62V35.37Zm0,3.55L69.7,35.37,52.24,43.23,34.77,35.37ZM33.37,68.59a7.7,7.7,0,1,1,7.72-7.7A7.71,7.71,0,0,1,33.37,68.59Zm41-6.06-22.11,10L41.85,67.81a10.81,10.81,0,0,0,2.49-6.92A11,11,0,0,0,30.12,50.45V36.83l22.12,10,22.11-10Z" transform="translate(-0.82 -1.15)" style="fill:#ff3644"/></svg>