<?xml version="1.0" encoding="utf-8"?>
<svg version="1.1" id="Layer_1" xmlns="http://www.w3.org/2000/svg" xmlns:xlink="http://www.w3.org/1999/xlink" x="0px" y="0px"
	 viewBox="0 0 286 277.9" style="enable-background:new 0 0 286 277.9;" xml:space="preserve">
<g>
	<path d="M66.7,77.7c1.6,0,2.2-0.5,2.6-2c5.2-15.7,10.5-31.4,15.7-47.1c1.1-3.4,2.1-4.1,5.7-4.1
		c17.5,0,35,0,52.5,0c17.3,0,34.6,0,51.9,0c3.2,0,4.3,0.8,5.3,3.8c0.6,1.8,1.2,3.6,1.9,5.4c4.8,14.1,9.6,28.1,14.3,42.2
		c0.5,1.4,1.1,1.9,2.5,1.8c2.4-0.1,4.9,0,7.3,0c5.5,0,11,0,16.6,0c-0.2-0.7-0.3-1.3-0.5-1.8c-6.2-18.6-12.4-37.2-18.6-55.8
		C219.7,7.6,209.2,0,196,0c-35.4,0-70.7,0-106.1,0C76.8,0,66.3,7.7,62.1,20.1c-4.2,12.5-8.4,25.1-12.6,37.7l0,0
		c-2.2,6.6-4.4,13.1-6.6,19.8c0.6,0,1,0.1,1.4,0.1C51.8,77.7,59.3,77.6,66.7,77.7z"/>
	<path d="M286,107.6c0.1-6.2-4.1-9.6-9.5-9.6c-19.8,0-39.7,0-59.5,0c8,9.8,14.1,21.5,18.2,35
		c6.9,22.6,4.9,46.9-5.5,68.4c-10.3,21.3-28,38.1-49.8,47.1c-11.8,4.9-24.2,7.3-36.8,7.3c-20.4,0-40.8-6.7-57.3-19
		c-17.2-12.7-29.4-30.4-35.3-51.1c-6.3-22.1-4.3-45.8,5.4-66.7c3.6-7.7,8.1-14.7,13.4-21.1c-20.1,0-40.1,0-60.2,0
		c-5.9,0-9.1,3.2-9.1,9.1c0,13.1,0,26.2,0,39.3c0,5.6,3.3,8.9,8.9,8.9c4,0,7.9,0,11.9,0c1,0,1.5,0.1,1.6,1.3c0.2,2.4,0.7,4.7,1,7
		c2.4,15.8,4.7,31.5,7.1,47.3c2.4,15.8,4.7,31.5,7.1,47.3c0.4,2.9,0.6,5.8,1.6,8.6c2.3,7,8.6,11.1,16.8,11.1c40.9,0,81.8,0,122.7,0
		c17.3,0,34.6,0,51.9,0c9.1,0,15.7-5.9,16.9-15c0.7-5.4,1.6-10.8,2.4-16.3c2.4-15.8,4.8-31.5,7.1-47.3c2.1-14.1,4.3-28.2,6.3-42.4
		c0.2-1.6,0.9-1.8,2.2-1.7c3.8,0.1,7.5,0,11.3,0c5.7,0,9-3.3,9-9l0,0C286,133.4,285.8,120.5,286,107.6z"/>
	<path d="M216,138.9c-5.4-17.9-14.9-31.4-28.1-40.8c-9.3-6.6-20.4-11-33.3-13.5c-1.9-0.4-3.9-0.3-5.8-0.9
		h-11.7c-0.1,0.3-0.3,0.3-0.5,0.3c-0.1,0-0.1,0-0.2,0c0,0-0.1,0-0.1,0c-8.6,0.8-16.7,2.9-24.6,6.4c-4.7,2.1-9.1,4.7-13.2,7.6
		c-25.5,18.3-37.6,51.2-28.7,82.3c9.6,33.9,40.4,55.5,73.4,55.5c9.7,0,19.6-1.9,29.1-5.8l0,0C207.8,215.3,227.2,175.7,216,138.9z
		 M145.5,180.9c-3.7,3.7-7.4,7.4-11.1,11.1c-1.6,1.6-3.4,2.4-5.2,2.4c-1.8,0-3.6-0.8-5.1-2.3c-6.8-6.8-13.5-13.5-20.3-20.3
		c-3.9-4-2.3-10.3,2.9-11.7c0.6-0.2,1.3-0.2,1.9-0.2c1.9,0,3.6,0.8,5.1,2.3c4.7,4.8,9.5,9.5,14.2,14.2c0.5,0.5,0.9,0.8,1.3,0.8
		c0.4,0,0.8-0.2,1.3-0.8c13.9-14,27.9-27.9,41.8-41.9c1.7-1.7,3.7-2.6,5.5-2.6c1.5,0,2.9,0.5,4.2,1.6l0,0c1.7,1.4,2.6,3.2,2.6,5.6
		c0,2-1,3.7-2.6,5.3C169.8,156.6,157.7,168.7,145.5,180.9z"/>
</g>
</svg>
